# xmcd
#
# Track frame offsets:
#	150
#	14167
#	33032
#	50232
#	63651
#	79263
#	93694
#	109748
#	124892
#	136904
#
# Disc length: 2010 seconds
#
# Revision: 1
# Processed by: cddbd v1.5.2PL0 Copyright (c) Steve Scherf et al.
# Submitted via: audiograbber 1.83.01
#
DISCID=9007d80a
DTITLE=Billy Dean - The Christ (A Song For Joseph)
DYEAR=2005
DGENRE=Christmas
TTITLE0=The Christ
TTITLE1=Mary, Did You Know?
TTITLE2=Silent Night
TTITLE3=The First Noel
TTITLE4=Little Drummer Boy
TTITLE5=Just For Me And You
TTITLE6=Oh Holy Night
TTITLE7=What Child IsThis
TTITLE8=Away In A Manger
TTITLE9=Shine On
EXTD=
EXTT0=
EXTT1=
EXTT2=
EXTT3=
EXTT4=
EXTT5=
EXTT6=
EXTT7=
EXTT8=
EXTT9=
PLAYORDER=
